<svg id="Livello_1" data-name="Livello 1" xmlns="http://www.w3.org/2000/svg" viewBox="0 0 2000 2000"><defs><style>.cls-1{fill:#e3e3e3;}</style></defs><path class="cls-1" d="M605.52,431c-12.32-2.11-22.48.93-39.35-15.93s-26.23-11.24-30-35.6.93-24.36-3.75-44,10.3-18.73-13.12-30-13.11,3.75-35.59-15-34.67-24.36-34.67-35.6,2.82-17.8,15-18.74,33.73-5.62,19.68-19.67-15-6.56-18.74-16.86-2.81-6.56,2.81-13.12,10.31-15.93-3.75-27.17S451,132.14,433.15,140.57s-15,6.55-33.73,18.73S381.63,179,360.08,194s-18.74,16.87-34.66,24.36-12.18,12.18-32.79,15.93-31.85,6.55-47.78,1.87-20.61-5.62-48.71-24.36-21.55-9.36-41.22-30.91-27.17-36.54-44-38.41-26.23-5.62-29,11.24-3.75,28.11-3.75,31.85-8.43,1.88-20.61,13.12-15,18.73-14.05,23.42S80.91,269.85,79,280.15s1.87,25.29,6.56,33.73S92.15,326.05,80,342s-33.73,20.61-21.55,30S79,387.88,89.34,396.31s21.55-2.81,20.61,20.61,23.42,60.9,23.42,72.14-3.74,18.73,1.88,32.78,16.86,18.74,23.42,36.54,4.68,18.74,14.05,33.72,13.11,19.68,30.91,31.86,55.27,14,61.83,19.67,8.43,0-.93,17.8-8.44,24.35-5.63,30,20.61,43.09-5.62,51.52S220.5,747.61,213,764.48s-18.73,28.1-21.55,40.28-10.3,12.18-2.81,33.72S200.82,861.9,207.38,875s25.29,57.14,37.47,64.64,22.49,15,23.42,26.23-23.42,10.3,2.81,27.17,38.25,18.73,53.32,27.16,16,15.93,31,19.68,3.75-7.5,25.3,4.68,23.42,9.37,38.41,31.85,45.9,30.91,33.72,44-17.8,11.24-21.54,27.17,7.49,62.76,8.43,75.88-6.56,25.29,11.24,43.09,25.29,36.54,44,42.16,29,.93,39.34-14.06,14.06-31.85,27.17-25.29,16.86,18.74,32.79,24.36,25.29,4.6,38.41,17.29a365.47,365.47,0,0,1,35.6,40.79c7.49,10.3,13.11,14.05,25.29,31.85s4.68,11.24,25.29,33.73,30.92,23.42,35.6,42.15,4.69,13.12,12.18,43.09,2.81,31.86,15,46.84,70.26,38.41,89.93,40.29,28.11,6.55,41.22,19.67,12.18,23.42,31.85,33.72,23.42,12.18,40.28,27.17,22.49,18.74,39.35,27.17,16.86,13.11,39.35,13.11,37.47,1.88,43.09-.93,15-11.24,30.91-15,26.23-5.62,34.66-9.37,18.74-1.87,41.22-15,20.61-13.11,45.91-19.67,28.1-11.24,34.66-8.43,20.61,9.37,23.42,12.18,45.9,46.84,42.15,62.76-14.05,23.42-4.68,38.41,14,22.48,24.36,32.79,12.18,15.92,37.47,18.73,75.88-4.68,93.68-1.87,45,10.31,64.64,12.18,6.56-4.68,42.15,3.75,43.1-.94,74,11.24,34.66,16.86,53.4,21.54,20.61,15.93,33.72-1.87,9.37-33.72,18.74-55.27,19.67-46.84,27.17-53.4,50.58-58.08,58.08-55.27,20.61,11.24,33.72,5.62,25.3-15,30-25.29,14.05-26.23,9.37-31.85-10.31-3.75-23.42-15-15-6.56-21.55-27.17-8.43-23.42-8.43-41.22-30.91-47.78-45-54.33-22.48-6.56-41.21-24.36-23.42-27.17-27.17-30.91-21.55-24.36-21.55-24.36-10.3-44-27.17-57.15-21.54-7.49-19.67-24.35,6.56-24.36,25.3-45,21.54-24.36,33.72-35.6,27.17-20.61,33.73-35.6,17.79-24.35,8.43-41.21-2.81-25.3-29-30-12.18,6.56-38.41-.94-39.35-8.43-42.16-18.74,15-108.66-2.81-125.53-30-12.17-23.42-28.1,10.31-18.74,16.86-33.73,17.8-22.48,9.37-34.66-3.75-11.24-22.48-25.29-25.3-9.37-24.36-30.91-4.68-17.8,6.56-33.73,10.3-15,25.29-30,36.54-49.65,39.35-53.39,2.81-15,6.56-24.36,7.49-21.55,5.62-31.85-11.25-2.81-4.69-39.35,9.37-31.85,7.5-57.14,0-30.92-6.56-37.48-10.31-21.54-31.85-16.86-26.23,8.43-38.41,4.69-52.46-63.71-58.08-66.52,3.74,11.25-15-5.62-27.17-13.11-27.17-25.29,17.8-16.86-7.49-24.36S1543.26,397.25,1518,401s-23.42,2.81-39.34,7.49-14,4.69-21.55,4.69-42.15-46.84-61.83-46.84-12.18,10.3-24.35,0-1.88-18.74-12.18-28.11-4.69-13.11-29-10.3-25.3,1.87-33.73,3.74-15,3.75-20.61,10.31,8.43,14-18.73,14-39.35,1.87-51.53,2.81-2.81-12.18-29,4.69-28.1,15-40.28,26.23-14,15-16.86,23.42-43.1,32.78-47.78,33.72-27.17.94-31.85,1.87-16.86,6.56-13.12,20.61,14.06,30.92-1.87,34.67-11.24-3.75-46.84,10.3S942.77,527.47,921.22,535s-21.54,10.3-49.65,12.18-27.17,0-58.08-6.56S765.71,535,734.8,520s-43.09-18.73-53.4-31.85S643.93,437.53,605.52,431Z"/></svg>