<svg xmlns="http://www.w3.org/2000/svg" viewBox="0 0 668.76 1307.14"><defs><style>.cls-1{fill:#fff;}.cls-2{fill:#262262;}</style></defs><g id="Layer_2" data-name="Layer 2"><g id="OBJECTS"><path class="cls-1" d="M643,85.92V1221.13a64.56,64.56,0,0,1-64.55,64.56H84.1a64.48,64.48,0,0,1-64.47-64.47V86A64.51,64.51,0,0,1,84.16,21.45h79.9a5.65,5.65,0,0,1,5.65,5.66,55.53,55.53,0,0,0,55.56,55.53H440.92a55.52,55.52,0,0,0,55.53-55.53,5.71,5.71,0,0,1,1.66-4,5.65,5.65,0,0,1,4-1.65h76.39A64.47,64.47,0,0,1,643,85.92Z"/><path class="cls-2" d="M668.76,258.36v71a6.14,6.14,0,0,1-5.67,6.12,3.46,3.46,0,0,1-.46,0,6.13,6.13,0,0,1-6.14-6.14v-71a6.14,6.14,0,0,1,6.14-6.14,2.32,2.32,0,0,1,.46,0A6.13,6.13,0,0,1,668.76,258.36Z"/><path class="cls-2" d="M668.76,172v71a6.14,6.14,0,0,1-5.67,6.12,3.46,3.46,0,0,1-.46,0,6.13,6.13,0,0,1-6.14-6.14V172a6.14,6.14,0,0,1,6.14-6.14,3.46,3.46,0,0,1,.46,0A6.14,6.14,0,0,1,668.76,172Z"/><path class="cls-2" d="M668.76,355.35v42a6.11,6.11,0,0,1-5.67,6.11,2.32,2.32,0,0,1-.46,0,6.13,6.13,0,0,1-6.14-6.14v-42a6.14,6.14,0,0,1,6.14-6.14,2.32,2.32,0,0,1,.46,0A6.13,6.13,0,0,1,668.76,355.35Z"/><path class="cls-2" d="M579.87,0H83.23A83.31,83.31,0,0,0,0,83.21v1140.7a83.33,83.33,0,0,0,83.23,83.23H579.87a83.32,83.32,0,0,0,83.22-83.23V83.21A83.3,83.3,0,0,0,579.87,0ZM643,1221.13a64.56,64.56,0,0,1-64.55,64.56H84.1a64.48,64.48,0,0,1-64.47-64.47V86A64.51,64.51,0,0,1,84.16,21.45h79.9a5.65,5.65,0,0,1,5.65,5.66,55.53,55.53,0,0,0,55.56,55.53H440.92a55.52,55.52,0,0,0,55.53-55.53,5.71,5.71,0,0,1,1.66-4,5.65,5.65,0,0,1,4-1.65h76.39A64.47,64.47,0,0,1,643,85.92Z"/><path class="cls-1" d="M400.57,48.4a7.25,7.25,0,0,1-2.1,5.1,7.14,7.14,0,0,1-5.1,2.14H272.62a7.23,7.23,0,1,1,0-14.46H393.37A7.21,7.21,0,0,1,400.57,48.4Z"/><path class="cls-1" d="M423.78,48.4a7.22,7.22,0,1,1-7.23-7.22A7.22,7.22,0,0,1,423.78,48.4Z"/><path class="cls-2" d="M72.88,52.56q0-5.07,2-7.58a7,7,0,0,1,5.83-2.52,8.21,8.21,0,0,1,2.1.22v1.69a6.59,6.59,0,0,0-2.07-.3,5.23,5.23,0,0,0-4.23,1.73c-1,1.15-1.51,3-1.6,5.42H75a4.5,4.5,0,0,1,4.1-2,4.78,4.78,0,0,1,3.65,1.4,5.28,5.28,0,0,1,1.34,3.8,5.84,5.84,0,0,1-1.47,4.22,5.21,5.21,0,0,1-4,1.54,5.1,5.1,0,0,1-4.24-2A8.91,8.91,0,0,1,72.88,52.56Zm5.78,5.94a3.27,3.27,0,0,0,2.59-1.06,4.44,4.44,0,0,0,.93-3,3.92,3.92,0,0,0-.86-2.68,3.21,3.21,0,0,0-2.57-1,4.34,4.34,0,0,0-1.94.43,3.6,3.6,0,0,0-1.41,1.2A2.77,2.77,0,0,0,74.88,54a5.48,5.48,0,0,0,.47,2.26,3.88,3.88,0,0,0,1.34,1.66A3.3,3.3,0,0,0,78.66,58.5Z"/><path class="cls-2" d="M93.34,48.28c0-1.06.46-1.59,1.39-1.59s1.45.53,1.45,1.59a1.62,1.62,0,0,1-.39,1.17,1.37,1.37,0,0,1-1.06.42,1.45,1.45,0,0,1-1-.37A1.64,1.64,0,0,1,93.34,48.28Zm0,10.39a1.75,1.75,0,0,1,.36-1.19,1.3,1.3,0,0,1,1-.41,1.39,1.39,0,0,1,1.06.41,2,2,0,0,1,0,2.37,1.56,1.56,0,0,1-2.06,0A1.62,1.62,0,0,1,93.34,58.67Z"/><path class="cls-2" d="M116.82,51.29q0,4.47-1.41,6.66a5.19,5.19,0,0,1-8.53-.05q-1.45-2.25-1.45-6.61t1.4-6.67a5.2,5.2,0,0,1,8.53.09A12.27,12.27,0,0,1,116.82,51.29Zm-9.41,0a12.61,12.61,0,0,0,.88,5.47,3.18,3.18,0,0,0,5.65,0,12.84,12.84,0,0,0,.87-5.45,12.7,12.7,0,0,0-.87-5.43,3.18,3.18,0,0,0-5.65,0A12.55,12.55,0,0,0,107.41,51.29Z"/><path class="cls-2" d="M130.6,51.29q0,4.47-1.41,6.66a5.19,5.19,0,0,1-8.53-.05q-1.44-2.25-1.44-6.61c0-3,.46-5.22,1.4-6.67a5.2,5.2,0,0,1,8.53.09A12.28,12.28,0,0,1,130.6,51.29Zm-9.41,0a12.58,12.58,0,0,0,.89,5.47,3.17,3.17,0,0,0,5.64,0,12.65,12.65,0,0,0,.88-5.45,12.52,12.52,0,0,0-.88-5.43,3.18,3.18,0,0,0-5.64,0A12.53,12.53,0,0,0,121.19,51.29Z"/><path class="cls-2" d="M595.18,61h-32V44.7h32v5.1h2.58v6.11h-2.58Zm-31-1h30v-5.1h2.58V50.8h-2.58V45.7h-30Z"/><rect class="cls-2" x="565.17" y="46.57" width="26.49" height="12.56"/><rect class="cls-2" x="518.74" y="52.08" width="2.4" height="8.64"/><rect class="cls-2" x="526.31" y="49.51" width="2.4" height="11.21"/><rect class="cls-2" x="533.88" y="46.45" width="2.4" height="14.27"/><rect class="cls-2" x="541.44" y="44.99" width="2.4" height="15.72"/><rect class="cls-2" x="224.87" y="1224.43" width="1.97" height="32.45" transform="translate(1466.52 1014.79) rotate(90)"/><rect class="cls-2" x="224.87" y="1234.64" width="1.97" height="32.45" transform="translate(1476.72 1025) rotate(90)"/><rect class="cls-2" x="224.87" y="1244.85" width="1.97" height="32.45" transform="translate(1486.93 1035.21) rotate(90)"/><path class="cls-2" d="M458.22,1264.48A2,2,0,0,1,457,1264l-14.69-11.88a1.65,1.65,0,0,1,0-2.59L457,1237.68a2.05,2.05,0,0,1,2.16-.23,1.69,1.69,0,0,1,1,1.53v23.77a1.7,1.7,0,0,1-1,1.53A2.22,2.22,0,0,1,458.22,1264.48Zm-14.36-13.62,14.26,11.55v-23.05Z"/><path class="cls-2" d="M348.32,1263.72h-7a1,1,0,0,1-1-1v-7h-3.94v7a1,1,0,0,1-1,1h-7a1,1,0,0,1-1-1v-15.81a1,1,0,0,1,.38-.78l9.95-7.9a1,1,0,0,1,1.24,0l9.95,7.9a1,1,0,0,1,.38.78v15.81A1,1,0,0,1,348.32,1263.72Zm-6-2h5v-14.33l-8.95-7.1-8.95,7.1v14.33h5v-7a1,1,0,0,1,1-1h5.94a1,1,0,0,1,1,1Z"/></g></g></svg>